<?xml version="1.0" standalone="no"?>
<!DOCTYPE svg PUBLIC "-//W3C//DTD SVG 20010904//EN"
 "http://www.w3.org/TR/2001/REC-SVG-20010904/DTD/svg10.dtd">
<svg version="1.0" xmlns="http://www.w3.org/2000/svg"
 width="260.000000pt" height="260.000000pt" viewBox="0 0 260.000000 260.000000"
 preserveAspectRatio="xMidYMid meet">
<metadata>
Created by potrace 1.11, written by Peter Selinger 2001-2013
</metadata>
<g transform="translate(0.000000,260.000000) scale(0.100000,-0.100000)"
fill="#000000" stroke="none">
<path d="M0 1990 l0 -610 650 0 650 0 0 -40 0 -40 -80 0 -80 0 0 -45 0 -45
-40 0 -40 0 0 45 0 45 -80 0 -80 0 0 -45 0 -45 -40 0 -40 0 0 45 0 45 -85 0
-85 0 0 -45 0 -45 -40 0 -40 0 0 45 0 45 -80 0 -80 0 0 -45 0 -45 -40 0 -40 0
0 45 0 45 -80 0 -80 0 0 -45 0 -45 -40 0 -40 0 0 45 0 45 -45 0 -45 0 0 -650
0 -650 650 0 650 0 0 650 0 650 45 0 45 0 0 -205 0 -205 40 0 40 0 0 -40 0
-40 -40 0 -40 0 0 -80 0 -80 40 0 40 0 0 -45 0 -45 -40 0 -40 0 0 -80 0 -80
40 0 40 0 0 -40 0 -40 -40 0 -40 0 0 -80 0 -80 40 0 40 0 0 -40 0 -40 -40 0
-40 0 0 -40 0 -40 605 0 605 0 0 605 0 605 -40 0 -40 0 0 45 0 45 -80 0 -80 0
0 -45 0 -45 -40 0 -40 0 0 45 0 45 -80 0 -80 0 0 -45 0 -45 -40 0 -40 0 0 45
0 45 -85 0 -85 0 0 -45 0 -45 -40 0 -40 0 0 45 0 45 -80 0 -80 0 0 -45 0 -45
-40 0 -40 0 0 45 0 45 -80 0 -80 0 0 40 0 40 605 0 605 0 0 610 0 610 -565 0
-565 0 0 -45 0 -45 -40 0 -40 0 0 -80 0 -80 40 0 40 0 0 -40 0 -40 -40 0 -40
0 0 -80 0 -80 40 0 40 0 0 -40 0 -40 -40 0 -40 0 0 -85 0 -85 40 0 40 0 0 -40
0 -40 -40 0 -40 0 0 -80 0 -80 40 0 40 0 0 -40 0 -40 -40 0 -40 0 0 -80 0 -80
-45 0 -45 0 0 610 0 610 -650 0 -650 0 0 -610z"/>
</g>
</svg>
